HIERARCHY
ROOT Hips
{
  OFFSET 5.84602e-005 68.8428 3.50346
  CHANNELS 6 Xposition Yposition Zposition Zrotation Xrotation Yrotation
  JOINT Spine
  {
    OFFSET 0 8.597 -4.6522
    CHANNELS 3 Zrotation Xrotation Yrotation
    JOINT Spine1
    {
      OFFSET 0 7.8454 0.4098
      CHANNELS 3 Zrotation Xrotation Yrotation
      JOINT Spine2
      {
        OFFSET 0 9.7078 -2.1609
        CHANNELS 3 Zrotation Xrotation Yrotation
        JOINT Neck
        {
          OFFSET 0 21.8761 -0.4549
          CHANNELS 3 Zrotation Xrotation Yrotation
          JOINT Head
          {
            OFFSET 0 12.3537 3.3602
            CHANNELS 3 Zrotation Xrotation Yrotation
            End Site
            {
              OFFSET 0.0001 18.9506 0.5657
            }
          }
        }
        JOINT LeftShoulder
        {
          OFFSET 2.2086 21.1115 7.2329
          CHANNELS 3 Zrotation Xrotation Yrotation
          JOINT LeftArm
          {
            OFFSET 13.1193 3.0282 -4.8998
            CHANNELS 3 Zrotation Xrotation Yrotation
            JOINT LeftForeArm
            {
              OFFSET 27.4081 -0.0973053 -0.2375
              CHANNELS 3 Zrotation Xrotation Yrotation
              JOINT LeftHand
              {
                OFFSET 22.8641 0.0662994 -0.1369
                CHANNELS 3 Zrotation Xrotation Yrotation
                JOINT LeftHandIndex1
                {
                  OFFSET 8.8614 0.775009 2.4612
                  CHANNELS 3 Zrotation Xrotation Yrotation
                  JOINT LeftHandIndex2
                  {
                    OFFSET 3.3146 -0.808304 0.5841
                    CHANNELS 3 Zrotation Xrotation Yrotation
                    JOINT LeftHandIndex3
                    {
                      OFFSET 2.2628 -0.552002 0.3989
                      CHANNELS 3 Zrotation Xrotation Yrotation
                      End Site
                      {
                        OFFSET 1.6102 -0.4807 0.2612
                      }
                    }
                  }
                }
                JOINT LeftHandMiddle1
                {
                  OFFSET 8.9937 0.895004 0.2143
                  CHANNELS 3 Zrotation Xrotation Yrotation
                  JOINT LeftHandMiddle2
                  {
                    OFFSET 4.0984 0.0113983 -0.0242
                    CHANNELS 3 Zrotation Xrotation Yrotation
                    JOINT LeftHandMiddle3
                    {
                      OFFSET 2.2716 0.00689697 -0.0138001
                      CHANNELS 3 Zrotation Xrotation Yrotation
                      End Site
                      {
                        OFFSET 2.0404 -0.1441 0.0027
                      }
                    }
                  }
                }
                JOINT LeftHandRing1
                {
                  OFFSET 8.5234 0.597198 -2.0164
                  CHANNELS 3 Zrotation Xrotation Yrotation
                  JOINT LeftHandRing2
                  {
                    OFFSET 3.7188 -0.188293 -0.2328
                    CHANNELS 3 Zrotation Xrotation Yrotation
                    JOINT LeftHandRing3
                    {
                      OFFSET 2.1191 -0.106598 -0.1332
                      CHANNELS 3 Zrotation Xrotation Yrotation
                      End Site
                      {
                        OFFSET 1.8737 -0.2304 -0.0886
                      }
                    }
                  }
                }
                JOINT LeftHandPinky1
                {
                  OFFSET 7.9094 -0.601089 -3.4825
                  CHANNELS 3 Zrotation Xrotation Yrotation
                  JOINT LeftHandPinky2
                  {
                    OFFSET 2.2874 -0.477005 -0.6314
                    CHANNELS 3 Zrotation Xrotation Yrotation
                    JOINT LeftHandPinky3
                    {
                      OFFSET 1.6774 -0.349396 -0.4633
                      CHANNELS 3 Zrotation Xrotation Yrotation
                      End Site
                      {
                        OFFSET 1.4888 -0.4091 -0.3416
                      }
                    }
                  }
                }
                JOINT LeftHandThumb1
                {
                  OFFSET 1.833 -1.3875 1.3896
                  CHANNELS 3 Zrotation Xrotation Yrotation
                  JOINT LeftHandThumb2
                  {
                    OFFSET 3.4129 -1.121 2.5732
                    CHANNELS 3 Zrotation Xrotation Yrotation
                    JOINT LeftHandThumb3
                    {
                      OFFSET 2.2474 -0.804199 1.6192
                      CHANNELS 3 Zrotation Xrotation Yrotation
                      End Site
                      {
                        OFFSET 1.6527 -0.5689 1.1317
                      }
                    }
                  }
                }
              }
            }
          }
        }
        JOINT RightShoulder
        {
          OFFSET -2.2086 21.1115 7.2329
          CHANNELS 3 Zrotation Xrotation Yrotation
          JOINT RightArm
          {
            OFFSET -13.1216 3.0287 -4.9007
            CHANNELS 3 Zrotation Xrotation Yrotation
            JOINT RightForeArm
            {
              OFFSET -27.4081 -0.0973053 -0.2375
              CHANNELS 3 Zrotation Xrotation Yrotation
              JOINT RightHand
              {
                OFFSET -22.8641 0.0664063 -0.1369
                CHANNELS 3 Zrotation Xrotation Yrotation
                JOINT RightHandIndex1
                {
                  OFFSET -8.8614 0.774994 2.4612
                  CHANNELS 3 Zrotation Xrotation Yrotation
                  JOINT RightHandIndex2
                  {
                    OFFSET -3.3146 -0.808304 0.5841
                    CHANNELS 3 Zrotation Xrotation Yrotation
                    JOINT RightHandIndex3
                    {
                      OFFSET -2.2628 -0.552002 0.3989
                      CHANNELS 3 Zrotation Xrotation Yrotation
                      End Site
                      {
                        OFFSET -1.6102 -0.4807 0.2612
                      }
                    }
                  }
                }
                JOINT RightHandMiddle1
                {
                  OFFSET -8.9937 0.894989 0.2143
                  CHANNELS 3 Zrotation Xrotation Yrotation
                  JOINT RightHandMiddle2
                  {
                    OFFSET -4.0984 0.0113983 -0.0242
                    CHANNELS 3 Zrotation Xrotation Yrotation
                    JOINT RightHandMiddle3
                    {
                      OFFSET -2.2716 0.00691223 -0.0138001
                      CHANNELS 3 Zrotation Xrotation Yrotation
                      End Site
                      {
                        OFFSET -2.0404 -0.1441 0.0027
                      }
                    }
                  }
                }
                JOINT RightHandRing1
                {
                  OFFSET -8.5234 0.597198 -2.0164
                  CHANNELS 3 Zrotation Xrotation Yrotation
                  JOINT RightHandRing2
                  {
                    OFFSET -3.7188 -0.188309 -0.2328
                    CHANNELS 3 Zrotation Xrotation Yrotation
                    JOINT RightHandRing3
                    {
                      OFFSET -2.1191 -0.106598 -0.1332
                      CHANNELS 3 Zrotation Xrotation Yrotation
                      End Site
                      {
                        OFFSET -1.8737 -0.2304 -0.0886
                      }
                    }
                  }
                }
                JOINT RightHandPinky1
                {
                  OFFSET -7.9094 -0.601105 -3.4825
                  CHANNELS 3 Zrotation Xrotation Yrotation
                  JOINT RightHandPinky2
                  {
                    OFFSET -2.2874 -0.477005 -0.6314
                    CHANNELS 3 Zrotation Xrotation Yrotation
                    JOINT RightHandPinky3
                    {
                      OFFSET -1.6774 -0.349396 -0.4633
                      CHANNELS 3 Zrotation Xrotation Yrotation
                      End Site
                      {
                        OFFSET -1.4888 -0.4091 -0.3416
                      }
                    }
                  }
                }
                JOINT RightHandThumb1
                {
                  OFFSET -1.833 -1.38751 1.3896
                  CHANNELS 3 Zrotation Xrotation Yrotation
                  JOINT RightHandThumb2
                  {
                    OFFSET -3.41299 -1.12099 2.5732
                    CHANNELS 3 Zrotation Xrotation Yrotation
                    JOINT RightHandThumb3
                    {
                      OFFSET -2.24741 -0.804108 1.6192
                      CHANNELS 3 Zrotation Xrotation Yrotation
                      End Site
                      {
                        OFFSET -1.6527 -0.5689 1.1317
                      }
                    }
                  }
                }
              }
            }
          }
        }
      }
    }
  }
  JOINT RightUpLeg
  {
    OFFSET -9.1966 3.8861 -0.7581
    CHANNELS 3 Zrotation Xrotation Yrotation
    JOINT RightLeg
    {
      OFFSET -0.7359 -41.0265 0
      CHANNELS 3 Zrotation Xrotation Yrotation
      JOINT RightFoot
      {
        OFFSET 0 -40.2855 0
        CHANNELS 3 Zrotation Xrotation Yrotation
        JOINT RightToeBase
        {
          OFFSET 0 -5.6122 11.7359
          CHANNELS 3 Zrotation Xrotation Yrotation
          End Site
          {
            OFFSET 0 0 7.8731
          }
        }
      }
    }
  }
  JOINT LeftUpLeg
  {
    OFFSET 9.1965 3.8864 -0.7581
    CHANNELS 3 Zrotation Xrotation Yrotation
    JOINT LeftLeg
    {
      OFFSET 0.7359 -41.0268 0
      CHANNELS 3 Zrotation Xrotation Yrotation
      JOINT LeftFoot
      {
        OFFSET 0 -40.2855 0
        CHANNELS 3 Zrotation Xrotation Yrotation
        JOINT LeftToeBase
        {
          OFFSET 0 -5.6122 11.7359
          CHANNELS 3 Zrotation Xrotation Yrotation
          End Site
          {
            OFFSET 0 0 7.8731
          }
        }
      }
    }
  }
}
MOTION
Frames:	4
Frame Time:	0.0333333
5.84602e-005 68.8428 3.50346 0 0 -0 0 0 -0 0 0 -0 0 0 -0 0 0 -0 -0 0 0.00880797 0 0 -0 0 0 -0 0 0 -0 0 0 -0 0 0 -0 0 0 -0 0 0 -0 0 0 -0 -0.0146107 -8.87603e-005 -2.63497e-007 2.99804e-018 -2.42657e-020 -1.42182e-022 0 0 -0 -0.0187562 -0.001176 5.858e-005 5.06224e-018 3.88251e-019 1.21329e-020 0 0 -0 -0.012269 -0.00324817 0.000675346 -1.74678e-018 3.88251e-019 -0 0 0 -0 0 0 -0 0 0 -0 0 0 -0 0 0 -0 0 0 -0 0 0 -0 0 0 -0 0 0 -0 0 0 -0 0 0 -0 0.0149955 -9.10982e-005 2.64101e-007 -9.69331e-018 1.21329e-020 -4.7394e-023 0 0 -0 0.0189956 -0.00119102 -5.96516e-005 -5.41541e-019 0 2.42657e-020 0 0 -0 0.0122698 -0.00324857 -0.000673756 -2.00796e-019 0 -1.94126e-019 0 0 -0 0 0 -0 0 0 -0 3.39842 1.33031 -0.0637918 -5.65207e-008 0.834868 -0.000436188 -3.39935 -2.16518 -0.0642563 -8.89002e-024 -1.18485e-023 -1.48106e-024 -3.39844 1.35642 0.0640283 -3.18788e-007 0.782166 -0.000588827 3.39931 -2.13858 0.0634662 1.1399e-023 0 -0 
-0.0194297 70.2848 -4.5319 -5.26763e-015 13.997 180 -0.44749 17.6471 -0.5434 -0.768109 35.2974 -1.01163 -0.768109 35.2975 -1.01163 -8.83558e-006 -24.3031 1.02698e-006 0.320065 -0.568287 0.00880782 -27.5275 -24.3512 7.18907 -45.1064 22.5311 -22.146 -15.5847 27.3985 -93.1201 19.5393 9.41586 -6.99382 -9.30185e-007 2.4186e-006 -1.6797e-006 3.87689e-006 -7.49515e-007 -9.60322e-007 -2.00591e-006 3.17289e-007 -6.7863e-007 -9.30185e-007 2.4186e-006 -1.6797e-006 -0.0146162 -9.01949e-005 -1.94632e-006 -9.3e-007 2.41882e-006 -1.67939e-006 -9.30185e-007 2.4186e-006 -1.6797e-006 -0.0187606 -0.00116742 5.94064e-005 -9.29962e-007 2.4189e-006 -1.67929e-006 -9.30185e-007 2.4186e-006 -1.6797e-006 -0.0122775 -0.0032454 0.000680293 -9.30062e-007 2.41883e-006 -1.67942e-006 -9.30185e-007 2.4186e-006 -1.6797e-006 3.87689e-006 -7.49515e-007 -9.60322e-007 -2.00591e-006 3.17289e-007 -6.7863e-007 -1.04286 -19.4756 11.6635 39.2825 -15.1634 64.0946 8.12581 -13.9138 6.13187 35.7571 9.20416 16.1759 3.73415e-007 4.3141e-007 -6.31805e-007 4.77083e-015 -1.27222e-014 -1.27222e-014 3.18055e-015 0 -3.18055e-015 3.73415e-007 4.3141e-007 -6.31805e-007 0.0149893 -9.04904e-005 2.73684e-006 -3.18055e-015 -3.18055e-015 3.18055e-015 3.73415e-007 4.3141e-007 -6.31805e-007 0.018965 -0.0011843 -5.83254e-005 -4.77083e-015 9.54166e-015 -6.36111e-015 3.73415e-007 4.3141e-007 -6.31805e-007 0.0122487 -0.00324229 -0.000674973 -1.11319e-014 3.18055e-015 3.18055e-015 3.73415e-007 4.3141e-007 -6.31805e-007 4.77083e-015 -1.27222e-014 -1.27222e-014 3.18055e-015 0 -3.18055e-015 -78.4556 -47.6634 -91.2675 -163.822 73.1792 163.298 -0.601666 -18.1944 -0.107786 -1.2709e-006 -2.51301e-006 -2.86654e-006 76.9323 -53.013 91.2713 161.986 76.8819 -161.721 2.69873 -15.0271 5.93239 -1.36885e-006 -1.62082e-007 -3.18638e-006 
-0.0289412 69.7892 -4.59325 -0.0694975 14.8072 -179.951 -0.44284 17.2066 -0.550291 -0.758266 34.4163 -1.02868 -0.758265 34.4163 -1.02868 -2.82456e-005 -24.913 -5.60426e-006 0.320126 -0.901554 0.00880895 -27.6154 -23.8158 7.43673 -45.1065 22.5311 -22.146 -15.4717 27.3138 -91.683 19.896 8.32036 -6.61561 1.38876e-006 -1.12955e-006 2.42166e-006 -3.34691e-006 1.45994e-006 -3.15351e-006 2.40342e-006 9.43485e-007 1.46727e-006 1.38876e-006 -1.12955e-006 2.42166e-006 -0.0146077 -9.04135e-005 2.34498e-006 2.40364e-006 9.43299e-007 1.46739e-006 1.38876e-006 -1.12955e-006 2.42166e-006 -0.0187607 -0.00117481 5.06751e-005 2.40371e-006 9.43261e-007 1.4674e-006 1.38876e-006 -1.12955e-006 2.42166e-006 -0.0122729 -0.00324926 0.000673531 2.40365e-006 9.43361e-007 1.46729e-006 1.38876e-006 -1.12955e-006 2.42166e-006 -3.34691e-006 1.45994e-006 -3.15351e-006 2.40342e-006 9.43485e-007 1.46727e-006 -0.79172 -18.6702 11.3605 39.3755 -14.9674 64.2644 8.12583 -13.9138 6.13188 36.0899 9.30575 15.5304 -2.36719e-007 2.50433e-006 1.73234e-006 3.81948e-007 4.33085e-007 -6.26084e-007 1.45228e-007 2.93742e-006 1.10626e-006 -2.36719e-007 2.50433e-006 1.73234e-006 0.0149689 -9.14015e-005 4.72658e-007 1.45022e-007 2.93756e-006 1.10587e-006 -2.36719e-007 2.50433e-006 1.73234e-006 0.0190133 -0.00119709 -6.20143e-005 1.44975e-007 2.93762e-006 1.10577e-006 -2.36719e-007 2.50433e-006 1.73234e-006 0.0122689 -0.00324806 -0.000676162 1.45073e-007 2.93758e-006 1.10595e-006 -2.36719e-007 2.50433e-006 1.73234e-006 3.81948e-007 4.33085e-007 -6.26084e-007 1.45228e-007 2.93742e-006 1.10626e-006 -80.5587 -48.1399 -93.3501 -164.266 72.5751 163.69 -0.554605 -17.9656 -0.442861 2.22334e-006 1.51148e-007 -1.7359e-006 79.325 -53.409 93.7364 162.606 76.3211 -162.294 2.74783 -14.7674 6.18515 -1.41165e-006 -1.46267e-007 -3.17385e-006 
-0.0410395 69.3126 -4.67583 -0.160216 15.8477 -179.886 -0.438324 16.7653 -0.557086 -0.749015 33.5339 -1.0453 -0.749015 33.5339 -1.0453 -1.23832e-005 -25.5242 -1.35736e-006 0.320177 -1.23486 0.00880916 -27.7056 -23.2805 7.68441 -45.1065 22.5311 -22.146 -15.356 27.2314 -90.2428 20.2598 7.22518 -6.23075 3.18055e-015 6.36111e-015 6.36111e-015 -1.76556e-031 3.18055e-015 3.18055e-015 -3.18055e-015 9.54166e-015 -0 3.18055e-015 6.36111e-015 6.36111e-015 -0.0146044 -8.95154e-005 8.0228e-008 -3.18055e-015 -1.59028e-015 -3.18055e-015 3.18055e-015 6.36111e-015 6.36111e-015 -0.0187552 -0.00118417 6.2246e-005 -6.36111e-015 -3.18055e-015 3.18055e-015 3.18055e-015 6.36111e-015 6.36111e-015 -0.0122706 -0.00324781 0.000680364 -3.18055e-015 -6.36111e-015 3.18055e-015 3.18055e-015 6.36111e-015 6.36111e-015 -1.76556e-031 3.18055e-015 3.18055e-015 -3.18055e-015 9.54166e-015 -0 -0.536997 -17.8652 11.0549 39.4679 -14.7712 64.4337 8.12582 -13.9138 6.13189 36.4242 9.40366 14.8837 -3.91697e-007 -4.34613e-007 6.19556e-007 5.87545e-007 6.5192e-007 -9.29333e-007 -5.87545e-007 -6.5192e-007 9.29334e-007 -3.91697e-007 -4.34613e-007 6.19556e-007 0.015009 -9.11685e-005 5.31915e-006 -5.87534e-007 -6.51798e-007 9.29419e-007 -3.91697e-007 -4.34613e-007 6.19556e-007 0.0190185 -0.00119258 -5.72477e-005 -5.87522e-007 -6.51766e-007 9.29448e-007 -3.91697e-007 -4.34613e-007 6.19556e-007 0.0122587 -0.00324185 -0.000675271 -5.87507e-007 -6.51826e-007 9.29419e-007 -3.91697e-007 -4.34613e-007 6.19556e-007 5.87545e-007 6.5192e-007 -9.29333e-007 -5.87545e-007 -6.5192e-007 9.29334e-007 -82.7042 -48.5652 -95.475 -164.682 71.9692 164.055 -0.503949 -17.7426 -0.776674 3.31832e-006 -1.23714e-006 1.61046e-006 81.7659 -53.7431 96.2496 163.18 75.757 -162.823 2.79401 -14.5131 6.43673 -3.31748e-007 1.43444e-007 -1.56263e-006 
